<?xml version="1.0" encoding="UTF-8" standalone="no"?>
<svg
   xmlns:dc="http://purl.org/dc/elements/1.1/"
   xmlns:cc="http://creativecommons.org/ns#"
   xmlns:rdf="http://www.w3.org/1999/02/22-rdf-syntax-ns#"
   xmlns:svg="http://www.w3.org/2000/svg"
   xmlns="http://www.w3.org/2000/svg"
   xmlns:sodipodi="http://sodipodi.sourceforge.net/DTD/sodipodi-0.dtd"
   xmlns:inkscape="http://www.inkscape.org/namespaces/inkscape"
   viewBox="0 0 36 36"
   class="a8c37x1j ms05siws hwsy1cff b7h9ocf4"
   fill="url(#jsc_s_2)"
   height="40"
   width="40"
   version="1.1"
   id="svg13"
   sodipodi:docname="facebook.svg"
   inkscape:version="1.0.1 (3bc2e813f5, 2020-09-07)">
  <metadata
     id="metadata17">
    <rdf:RDF>
      <cc:Work
         rdf:about="">
        <dc:format>image/svg+xml</dc:format>
        <dc:type
           rdf:resource="http://purl.org/dc/dcmitype/StillImage" />
      </cc:Work>
    </rdf:RDF>
  </metadata>
  <sodipodi:namedview
     pagecolor="#ffffff"
     bordercolor="#666666"
     borderopacity="1"
     objecttolerance="10"
     gridtolerance="10"
     guidetolerance="10"
     inkscape:pageopacity="0"
     inkscape:pageshadow="2"
     inkscape:window-width="1366"
     inkscape:window-height="723"
     id="namedview15"
     showgrid="false"
     inkscape:zoom="13.775"
     inkscape:cx="18.979387"
     inkscape:cy="19.914949"
     inkscape:window-x="0"
     inkscape:window-y="22"
     inkscape:window-maximized="1"
     inkscape:current-layer="svg13" />
  <defs
     id="defs7">
    <linearGradient
       x1="50%"
       x2="50%"
       y1="97.0782153%"
       y2="0%"
       id="jsc_s_2">
      <stop
         offset="0%"
         stop-color="#0062E0"
         id="stop2" />
      <stop
         offset="100%"
         stop-color="#19AFFF"
         id="stop4" />
    </linearGradient>
  </defs>
  <path
     d="M15 35.8C6.5 34.3 0 26.9 0 18 0 8.1 8.1 0 18 0s18 8.1 18 18c0 8.9-6.5 16.3-15 17.8l-1-.8h-4l-1 .8z"
     id="path9" />
  <path
     class="p361ku9c"
     d="M25 23l.8-5H21v-3.5c0-1.4.5-2.5 2.7-2.5H26V7.4c-1.3-.2-2.7-.4-4-.4-4.1 0-7 2.5-7 7v4h-4.5v5H15v12.7c1 .2 2 .3 3 .3s2-.1 3-.3V23h4z"
     id="path11"
     style="fill:#ffffff" />
</svg>
